<?xml version="1.0" standalone="no"?>
<!DOCTYPE svg PUBLIC "-//W3C//DTD SVG 20010904//EN"
 "http://www.w3.org/TR/2001/REC-SVG-20010904/DTD/svg10.dtd">
<svg version="1.0" xmlns="http://www.w3.org/2000/svg"
 width="156.000000pt" height="156.000000pt" viewBox="0 0 156.000000 156.000000"
 preserveAspectRatio="xMidYMid meet">
<metadata>
Created by potrace 1.11, written by Peter Selinger 2001-2013
</metadata>
<g transform="translate(0.000000,156.000000) scale(0.100000,-0.100000)"
fill="#000000" stroke="none">
<path d="M294 1327 c-202 -52 -327 -256 -284 -463 16 -78 42 -127 101 -189 99
-104 252 -146 394 -107 49 14 123 59 159 98 l26 29 0 -36 c0 -40 -5 -37 337
-211 l102 -52 108 56 c59 31 155 82 213 112 l105 55 3 295 c3 339 8 323 -88
266 -28 -16 -52 -30 -54 -30 -2 0 -52 -28 -112 -62 -60 -35 -125 -71 -144 -82
l-35 -18 -50 28 c-73 40 -85 48 -85 56 0 4 31 -9 68 -30 79 -42 55 -47 238 56
61 34 131 72 154 85 24 13 46 29 48 36 3 8 -20 0 -54 -18 -33 -18 -88 -49
-124 -69 -36 -19 -81 -44 -100 -55 -94 -54 -88 -53 -147 -21 -44 23 -53 33
-53 56 0 23 -10 33 -69 68 -78 45 -86 47 -100 23 -10 -17 -14 -16 -61 9 -39
22 -50 25 -50 13 0 -8 4 -15 9 -15 15 0 83 -42 77 -47 -3 -3 -27 7 -55 22 -76
42 -81 35 -81 -94 l0 -109 -56 -72 c-98 -127 -152 -163 -244 -163 -138 0 -228
122 -191 259 12 43 61 100 101 117 73 30 153 28 221 -6 30 -14 55 -24 57 -22
6 6 9 166 4 187 -10 43 -187 70 -288 45z"/>
<path d="M940 336 c0 -7 -7 -19 -15 -26 -20 -16 -19 -54 1 -74 40 -41 105 4
85 58 -6 14 -15 26 -20 26 -6 0 -8 7 -5 15 4 8 1 15 -5 15 -6 0 -11 -7 -11
-15 0 -8 -5 -15 -11 -15 -6 0 -9 7 -5 15 3 8 1 15 -4 15 -6 0 -10 -6 -10 -14z
m38 -35 c21 -13 11 -55 -14 -59 -25 -3 -37 25 -22 52 10 18 17 19 36 7z"/>
<path d="M45 322 c-40 -9 -52 -54 -24 -88 15 -19 53 -18 69 1 11 13 8 15 -21
13 -29 -3 -34 0 -37 21 -4 28 15 43 39 30 11 -6 20 -5 24 0 8 13 -25 29 -50
23z"/>
<path d="M140 289 c-22 -49 -25 -69 -10 -69 6 0 10 5 10 10 0 15 48 12 53 -2
2 -7 8 -10 12 -6 10 10 -14 85 -32 99 -10 9 -17 2 -33 -32z m40 -20 c0 -5 -7
-9 -15 -9 -9 0 -12 6 -9 15 6 15 24 11 24 -6z"/>
<path d="M312 300 l-19 -30 -11 25 c-19 42 -42 32 -42 -19 0 -25 5 -48 10 -51
10 -6 13 4 11 40 0 16 2 15 12 -6 15 -34 29 -34 44 0 l11 26 1 -32 c2 -53 21
-38 21 16 0 61 -14 72 -38 31z"/>
<path d="M390 315 c-12 -14 -10 -84 2 -91 5 -3 12 3 15 15 3 12 13 21 24 21
27 0 43 34 23 51 -20 17 -52 19 -64 4z m50 -26 c0 -5 -10 -9 -21 -9 -18 0 -19
2 -9 15 12 15 30 12 30 -6z"/>
<path d="M567 320 c-4 -8 -7 -28 -9 -45 -2 -22 -8 -30 -23 -30 -15 0 -20 7
-21 30 -2 43 -3 45 -14 45 -14 0 -12 -74 2 -88 21 -21 66 -15 74 11 11 31 11
51 3 73 -5 15 -8 16 -12 4z"/>
<path d="M633 317 c-13 -5 -23 -14 -23 -18 0 -13 31 -39 46 -39 8 0 14 -5 14
-11 0 -7 -10 -9 -24 -5 -14 3 -27 2 -31 -4 -7 -12 39 -24 60 -16 24 9 18 45
-10 58 -28 13 -25 29 5 21 25 -7 26 3 3 15 -11 6 -27 6 -40 -1z"/>
<path d="M1048 318 c-3 -7 -4 -26 -3 -43 2 -16 3 -36 4 -42 1 -15 61 -18 61
-3 0 6 -9 10 -20 10 -11 0 -20 6 -21 13 -1 6 -2 24 -3 39 -1 31 -11 45 -18 26z"/>
<path d="M1266 323 c-3 -4 -6 -26 -6 -50 0 -49 16 -62 58 -47 34 12 46 47 24
73 -17 20 -65 35 -76 24z m62 -49 c2 -13 -4 -24 -13 -28 -24 -9 -35 1 -35 30
0 21 4 25 23 22 13 -2 23 -11 25 -24z"/>
<path d="M1405 321 c-12 -21 -33 -89 -28 -95 3 -2 14 0 24 7 15 9 23 9 39 0
28 -18 31 -3 10 44 -19 44 -35 59 -45 44z m25 -52 c0 -5 -4 -9 -10 -9 -5 0
-10 7 -10 16 0 8 5 12 10 9 6 -3 10 -10 10 -16z"/>
<path d="M770 276 c0 -25 5 -48 10 -51 10 -6 14 7 11 33 -3 23 15 12 26 -15
l10 -28 16 35 16 35 1 -32 c0 -37 17 -45 22 -10 6 38 -4 77 -18 77 -8 0 -20
-12 -26 -27 l-11 -28 -10 28 c-6 16 -18 27 -29 27 -15 0 -18 -8 -18 -44z"/>
<path d="M1139 315 c-1 -3 -1 -14 -1 -25 0 -53 3 -70 12 -70 6 0 10 14 10 31
l0 31 26 -31 c14 -17 30 -29 35 -25 12 7 11 94 -1 94 -5 0 -11 -4 -11 -10 -1
-5 -2 -14 -3 -19 -3 -21 -13 -19 -26 4 -12 22 -38 35 -41 20z"/>
<path d="M1492 273 c3 -46 4 -48 36 -51 18 -2 32 1 32 7 0 6 -10 11 -23 11
-20 0 -23 5 -23 37 1 21 -4 38 -12 41 -9 3 -12 -9 -10 -45z"/>
</g>
</svg>
